<?xml version="1.0" encoding="UTF-8"?> <svg xmlns="http://www.w3.org/2000/svg" width="86" height="86" viewBox="0 0 86 86" fill="none"><path d="M47.2999 58.7667H38.6999C37.9087 58.7667 37.2666 59.4089 37.2666 60.2C37.2666 60.9911 37.9087 61.6333 38.6999 61.6333H47.2999C48.091 61.6333 48.7332 60.9911 48.7332 60.2C48.7332 59.4089 48.091 58.7667 47.2999 58.7667Z" fill="#0088F0"></path><path d="M80.2652 1.43335H5.73479C2.57278 1.43335 0 4.00629 0 7.16814V54.4666C0 55.2578 0.642145 55.8999 1.43328 55.8999H84.5666C85.3577 55.8999 85.9998 55.2578 85.9998 54.4666V7.16814C86 4.00629 83.4272 1.43335 80.2652 1.43335ZM83.1333 53.0334H2.86672V7.16814C2.86672 5.58571 4.15387 4.30007 5.73479 4.30007H80.2652C81.8461 4.30007 83.1333 5.58571 83.1333 7.16814V53.0334Z" fill="#0088F0"></path><path d="M84.5667 53.0333H1.43328C0.642145 53.0333 0 53.6755 0 54.4666V61.6318C0 64.7938 2.57278 67.3665 5.73479 67.3665H80.2652C83.4272 67.3665 86 64.7938 86 61.6318L85.9998 54.4666C85.9998 53.6755 85.3579 53.0333 84.5667 53.0333ZM83.1333 61.6319C83.1333 63.2144 81.8461 64.5 80.2652 64.5H5.73479C4.15387 64.5 2.86672 63.2144 2.86672 61.6319V55.9H83.1334L83.1333 61.6319Z" fill="#0088F0"></path><path d="M78.8332 7.16675H7.16668C6.37555 7.16675 5.7334 7.8089 5.7334 8.60003V54.4668C5.7334 55.2579 6.37555 55.9 7.16668 55.9H78.8334C79.6245 55.9 80.2667 55.2579 80.2667 54.4668V8.60003C80.2667 7.8089 79.6245 7.16675 78.8332 7.16675ZM77.4 53.0333H8.59996V10.0333H77.4V53.0333Z" fill="#0088F0"></path><path d="M61.6332 75.9668H24.3667C21.996 75.9668 20.0667 77.8961 20.0667 80.2668C20.0667 82.6375 21.996 84.5668 24.3667 84.5668H61.6334C64.0041 84.5668 65.9334 82.6375 65.9334 80.2668C65.9334 77.8961 64.0039 75.9668 61.6332 75.9668ZM61.6332 81.7001H24.3667C23.5755 81.7001 22.9334 81.0566 22.9334 80.2668C22.9334 79.477 23.5755 78.8335 24.3667 78.8335H61.6334C62.4245 78.8335 63.0667 79.477 63.0667 80.2668C63.0667 81.0566 62.4245 81.7001 61.6332 81.7001Z" fill="#0088F0"></path><path d="M58.7666 75.9668C54.0107 75.9668 51.5999 72.5913 51.5999 65.9335C51.5999 65.1424 50.9577 64.5002 50.1666 64.5002H35.8333C35.0422 64.5002 34.4001 65.1424 34.4001 65.9335C34.4001 72.5913 31.9892 75.9668 27.2333 75.9668C26.4422 75.9668 25.8001 76.6089 25.8001 77.4001C25.8001 78.1912 26.4422 78.8333 27.2333 78.8333H58.7666C59.5577 78.8333 60.1999 78.1912 60.1999 77.4001C60.1999 76.6089 59.5577 75.9668 58.7666 75.9668ZM34.215 75.9668C35.9795 74.0118 37.0185 71.1006 37.2278 67.3668H48.7733C48.9811 71.1006 50.0203 74.0118 51.7862 75.9668H34.215Z" fill="#0088F0"></path><path d="M68.4905 43.665L65.0305 40.205L66.9554 38.2801C67.3124 37.9231 67.4556 37.4043 67.3324 36.9155C67.2091 36.4267 66.8379 36.0397 66.3548 35.8936L52.0215 31.5936C51.5156 31.4415 50.9695 31.5806 50.5968 31.9533C50.2227 32.3261 50.0852 32.8735 50.237 33.3781L54.537 47.7113C54.6818 48.1958 55.0701 48.567 55.5589 48.6903C56.0462 48.8107 56.5666 48.6701 56.9235 48.3133L58.9502 46.2851L62.4102 49.7466C62.6783 50.016 63.0438 50.1665 63.4236 50.1665C63.8033 50.1665 64.1688 50.016 64.4369 49.7466L68.4903 45.6917C69.0508 45.1313 69.0508 44.2255 68.4905 43.665ZM63.4236 46.7065L60.2731 43.5546C59.9076 43.1891 59.4289 43.007 58.9502 43.007C58.47 43.007 57.9913 43.1905 57.6273 43.5531L56.5924 44.588L53.7472 35.1036L63.2316 37.9488L62.1221 39.0583C61.8168 39.365 61.6491 39.7721 61.6491 40.205C61.6491 40.6394 61.8183 41.0492 62.125 41.3531L65.4503 44.6783L63.4236 46.7065Z" fill="#0088F0"></path><path d="M60.1999 12.9H20.0666C19.2754 12.9 18.6333 13.5422 18.6333 14.3333V21.5C18.6333 22.2912 19.2754 22.9333 20.0666 22.9333H60.1999C60.991 22.9333 61.6331 22.2912 61.6331 21.5V14.3333C61.6331 13.5422 60.991 12.9 60.1999 12.9ZM58.7666 20.0667H21.4999V15.7667H58.7666V20.0667Z" fill="#0088F0"></path><path d="M37.2668 28.6668H25.8001C25.009 28.6668 24.3668 29.309 24.3668 30.1001V35.8334C24.3668 36.6245 25.009 37.2667 25.8001 37.2667H37.2668C38.058 37.2667 38.7001 36.6245 38.7001 35.8334V30.1001C38.7001 29.309 38.058 28.6668 37.2668 28.6668ZM35.8334 34.4001H27.2334V31.5334H35.8334V34.4001Z" fill="#0088F0"></path><path d="M60.1999 12.9H20.0666C19.2754 12.9 18.6333 13.5422 18.6333 14.3333V41.5666C18.6333 42.3577 19.2754 42.9999 20.0666 42.9999H54.1886C54.6429 42.9999 55.0686 42.7864 55.3382 42.4222C55.6091 42.0582 55.6922 41.5881 55.5617 41.1537L53.7472 35.1036L59.7887 36.9169C60.223 37.0474 60.6932 36.9642 61.0557 36.6933C61.4196 36.4239 61.6333 35.9967 61.6333 35.5437L61.6331 14.3333C61.6331 13.5422 60.991 12.9 60.1999 12.9ZM58.7666 33.6175L52.0198 31.5936C51.5139 31.4416 50.9678 31.5807 50.5951 31.9534C50.221 32.3275 50.0834 32.8735 50.2353 33.3796L52.262 40.1335H21.4999V15.7667H58.7666V33.6175Z" fill="#0088F0"></path></svg> 