<?xml version="1.0" encoding="UTF-8"?> <svg xmlns="http://www.w3.org/2000/svg" width="112" height="90" viewBox="0 0 112 90" fill="none"><path d="M111.654 60.3209C111.481 59.9752 111.136 59.9752 110.79 59.9752H84.5185C83.8271 59.9752 83.1357 60.4937 83.1357 61.3579V88.4937C83.1357 88.8394 83.3086 89.185 83.6543 89.5307C83.8271 89.7036 84.1728 89.8764 84.5185 89.8764H84.6913C99.3826 88.3208 110.79 76.3949 112 61.5308C112 60.8394 111.827 60.4937 111.654 60.3209ZM85.9012 86.7653V62.395H109.234C107.679 74.8394 98.1727 84.6912 85.9012 86.7653Z" fill="#0088F0"></path><path d="M76.5678 60.8395C76.0492 60.6666 75.5307 60.6666 75.185 61.1851L58.4196 77.7777C57.9011 78.2962 57.9011 78.9876 58.4196 79.5061C62.9135 84.6913 69.1357 88.148 75.8764 89.3579H76.0492C76.3949 89.3579 76.5678 89.1851 76.9134 89.0122C77.2591 88.8394 77.432 88.3209 77.432 87.9752V62.0493C77.432 61.5308 77.0863 61.0123 76.5678 60.8395ZM74.8394 86.2468C69.6542 85.0369 64.9875 82.2715 61.1851 78.469L74.8394 64.9876V86.2468Z" fill="#0088F0"></path><path d="M77.0863 31.2839C91.9504 29.037 105.95 38.8888 108.889 53.5801C109.061 54.2715 109.58 54.6172 110.099 54.6172H110.271C110.963 54.4443 111.481 53.753 111.308 53.0616C108.197 36.9876 92.9874 26.2715 76.7406 28.6913C76.0492 28.8641 75.185 28.8641 74.4937 29.037V0H63.0863V46.8394H59.6295V5.53085H48.2221V46.8394H44.7653V15.7284H33.358V46.8394H29.9012V11.2345H18.4938V46.8394H15.037V26.7901H3.45678V46.8394H0V49.432H52.1974C51.6789 50.9875 51.3332 52.7159 50.9875 54.4443C49.9505 60.8394 50.9875 67.0616 53.9258 72.7653C54.0986 73.2838 54.6172 73.4566 55.1357 73.4566C55.3085 73.4566 55.4814 73.4566 55.6542 73.2838C56.3456 72.9381 56.5184 72.2467 56.1727 71.5554C53.5801 66.3702 52.7159 60.4937 53.5801 54.79C53.9258 53.0616 54.2715 51.1604 54.9628 49.432H77.7776V46.8394H74.3208V31.8024C75.3579 31.6296 76.2221 31.4567 77.0863 31.2839ZM6.04937 46.8394V29.3827H12.2716V46.8394H6.04937ZM20.9135 46.8394V13.8271H27.1357V46.8394H20.9135ZM35.7777 46.8394V18.3209H41.9999V46.8394H35.7777ZM54.0986 46.8394H50.8147V8.12344H57.0369V46.8394H54.0986ZM65.6789 46.8394V2.59259H71.9011V46.8394H65.6789Z" fill="#0088F0"></path></svg> 