<?xml version="1.0" encoding="UTF-8"?> <svg xmlns="http://www.w3.org/2000/svg" width="87" height="83" viewBox="0 0 87 83" fill="none"><g clip-path="url(#clip0)"><path d="M27.6423 32.2455C27.4104 31.8165 26.9565 31.5349 26.4476 31.5035L14.2497 30.7369C13.6176 30.6781 13.0332 31.0471 12.8027 31.6018L4.00913 52.7836C3.77277 53.3521 3.96563 53.9985 4.48185 54.3688C4.73995 54.5546 5.05023 54.6476 5.35897 54.6476C5.66483 54.6476 5.97086 54.5575 6.22897 54.3744L13.5277 49.2157L17.7774 50.0164C18.4705 50.1463 19.1635 49.7882 19.4158 49.1638C21.698 43.5294 24.4454 38.2901 27.5786 33.5932C27.8498 33.1856 27.8744 32.6731 27.6423 32.2455ZM17.1509 47.1109L13.4596 46.4153C13.0565 46.3402 12.636 46.4304 12.3055 46.6626L8.56622 49.3055L15.1153 33.5299L23.8697 34.0793C21.3469 38.104 19.0938 42.4741 17.1509 47.1109Z" fill="#0088F0"></path><path d="M54.6837 68.8488L53.8703 57.3505C53.8355 56.8693 53.5367 56.4417 53.0815 56.223C52.6277 56.0044 52.0839 56.0261 51.652 56.283C46.6672 59.2361 41.1098 61.8258 35.132 63.9767C34.4708 64.2131 34.088 64.8664 34.2273 65.5209L35.0769 69.5264L29.6036 76.4042C29.215 76.8935 29.2166 77.5658 29.6094 78.0524C29.8893 78.3994 30.3199 78.5921 30.7635 78.5921C30.9404 78.5921 31.1188 78.5607 31.2926 78.5005L53.766 70.2123C54.3546 69.9953 54.7257 69.4431 54.6837 68.8488ZM34.9811 74.2016L37.7851 70.6772C38.0317 70.367 38.1274 69.9708 38.0461 69.5895L37.3082 66.1116C42.2291 64.2803 46.8643 62.1567 51.1342 59.7789L51.7186 68.0288L34.9811 74.2016Z" fill="#0088F0"></path><path d="M42.0467 41.2782H32.2773C31.7511 41.2782 31.2668 41.5474 31.01 41.9806L18.7483 62.7469C18.4293 63.2881 18.5365 63.9659 19.0093 64.3951C19.2862 64.6465 19.65 64.7777 20.0155 64.7777C20.2736 64.7777 20.5331 64.7135 20.765 64.5796L42.7976 52.0127C43.231 51.7654 43.4965 51.3226 43.4965 50.8444V42.6448C43.4966 41.8905 42.847 41.2782 42.0467 41.2782ZM40.5969 50.0749L23.9391 59.5765L33.1286 44.0127V44.0112H40.5969V50.0749Z" fill="#0088F0"></path><path d="M86.9266 1.59459C86.8671 0.929143 86.3076 0.401593 85.6014 0.345539C85.12 0.309985 37.3738 -2.83177 16.7071 48.1876C16.5027 48.6919 16.6316 49.2603 17.0362 49.6416L23.9304 56.1396C24.2537 56.4444 24.7061 56.5837 25.1599 56.5264C25.6109 56.4649 26.0053 56.208 26.2257 55.8321L33.1329 44.0114H40.597V50.0912L27.9801 57.5991C27.6074 57.8218 27.3624 58.1908 27.3131 58.6036C27.2639 59.0163 27.4175 59.4276 27.7293 59.7214L34.6235 66.2194C34.9004 66.4804 35.2702 66.6198 35.6486 66.6198C35.8226 66.6198 35.9979 66.5911 36.1662 66.5296C90.299 47.0492 86.9672 2.04702 86.9266 1.59459ZM79.3205 25.8402C74.2327 37.7047 62.5901 53.8343 36.0064 63.6585L31.0623 58.9985L42.8209 52.0017C43.2413 51.7502 43.4965 51.3143 43.4965 50.8455V42.6461C43.4965 41.8917 42.8469 41.2795 42.0466 41.2795H32.2743C31.7452 41.2795 31.2594 41.5514 31.0042 41.9874L24.6145 52.9226L19.7531 48.3391C37.8956 4.71584 76.5671 2.93108 84.0847 3.03085C84.1384 6.21777 83.8281 15.3272 79.3205 25.8402Z" fill="#0088F0"></path><path d="M24.8366 60.6358C24.5219 60.2423 24.0203 60.0509 23.5287 60.1C23.5795 59.6354 23.3764 59.1639 22.9603 58.8673C20.7739 57.3095 17.9524 56.7916 15.2165 57.4447C12.3124 58.1402 9.93745 60.007 8.70213 62.5693L0.130507 80.3442C-0.120295 80.8634 -0.00288045 81.4744 0.424809 81.8761C0.701779 82.1384 1.07288 82.2765 1.44994 82.2765C1.65299 82.2765 1.85741 82.2355 2.05027 82.1535L20.909 74.073C23.6261 72.9102 25.6066 70.6717 26.3446 67.9345C27.0391 65.3586 26.4896 62.6979 24.8366 60.6358ZM23.5346 67.2622C23.0155 69.1904 21.6208 70.766 19.7099 71.586L4.37002 78.1578L11.3425 63.6982C12.211 61.8971 13.8842 60.5824 15.93 60.0933C16.468 59.9649 17.0087 59.9019 17.5422 59.9019C18.4455 59.9019 19.3284 60.0837 20.1332 60.4376L18.7529 62.7404C18.4324 63.2746 18.5296 63.9457 18.9906 64.3789C19.4516 64.8148 20.1636 64.905 20.7291 64.6029L23.1722 63.3006C23.7666 64.5059 23.9015 65.8983 23.5346 67.2622Z" fill="#0088F0"></path><path d="M86.9263 1.59608C86.8669 0.930635 86.3071 0.403086 85.6011 0.347032C85.0356 0.304591 71.5951 -0.654736 55.7884 6.20821C55.3578 6.39399 55.0518 6.76843 54.9677 7.20854C54.8836 7.64864 55.0345 8.09948 55.3694 8.41514L78.3647 30.0889C78.6388 30.3472 79.0085 30.4893 79.3898 30.4893C79.4753 30.4893 79.561 30.4824 79.6464 30.4688C80.1134 30.3895 80.5091 30.1012 80.7077 29.6952C87.9905 14.797 86.9727 2.12763 86.9263 1.59608ZM78.92 26.7448L58.9173 7.89176C70.4889 3.28779 80.6221 2.97069 84.0859 3.02546C84.1439 6.29293 83.8176 15.8138 78.92 26.7448Z" fill="#0088F0"></path><path d="M64.0327 21.9238C59.1567 17.328 51.2245 17.328 46.3484 21.9238C41.4724 26.5196 41.4724 33.9959 46.3484 38.5917C48.7858 40.8902 51.9886 42.0382 55.1899 42.0382C58.3927 42.0382 61.594 40.889 64.0327 38.5917C68.9087 33.9959 68.9087 26.5194 64.0327 21.9238ZM61.9826 36.6593C58.2376 40.1891 52.1437 40.1891 48.3987 36.6593C44.6536 33.1295 44.6536 27.3858 48.3987 23.856C50.2705 22.0918 52.731 21.209 55.1901 21.209C57.6491 21.209 60.1096 22.0918 61.9828 23.856C65.7277 27.3858 65.7277 33.1295 61.9826 36.6593Z" fill="#0088F0"></path><path d="M58.0722 32.975C56.4831 34.4755 53.8966 34.474 52.306 32.975C50.7169 31.4759 50.7169 29.0394 52.306 27.5401C53.8951 26.0424 56.4816 26.0411 58.0722 27.5401C58.6377 28.0744 59.557 28.0744 60.1223 27.5401C60.6892 27.0059 60.6892 26.1422 60.1223 25.6079C57.4038 23.0443 52.9758 23.0443 50.2559 25.6079C47.5358 28.1715 47.5358 32.3437 50.2559 34.9073C51.6159 36.1891 53.4037 36.8301 55.1899 36.8301C56.9776 36.8301 58.7638 36.1891 60.1223 34.9073C60.6892 34.373 60.6892 33.5093 60.1223 32.975C59.5568 32.4407 58.6377 32.4407 58.0722 32.975Z" fill="#0088F0"></path></g><defs><clipPath id="clip0"><rect width="87" height="82" fill="white" transform="translate(0 0.277588)"></rect></clipPath></defs></svg> 