<?xml version="1.0" encoding="UTF-8"?> <svg xmlns="http://www.w3.org/2000/svg" width="85" height="77" viewBox="0 0 85 77" fill="none"><path fill-rule="evenodd" clip-rule="evenodd" d="M71.4849 32.4931C74.0278 31.928 74.8755 35.6012 72.6151 36.1663L68.0943 37.2965C65.8339 38.1441 64.7037 34.471 67.2467 33.9059L71.4849 32.4931ZM42.3824 39.8394C43.7951 39.8394 44.9253 40.9696 44.9253 42.3824C44.9253 43.7951 43.7951 44.9253 42.3824 44.9253C40.9696 44.9253 39.8394 43.7951 39.8394 42.3824C39.8394 40.9696 40.9696 39.8394 42.3824 39.8394ZM48.881 24.0167L44.9253 38.4267C46.338 39.2743 47.1857 40.6871 47.1857 42.3824C47.1857 44.9253 44.9253 47.1857 42.3824 47.1857C39.8394 47.1857 37.579 44.9253 37.579 42.3824C37.579 39.8394 39.5569 37.8616 42.0998 37.579L45.7729 23.4516C46.338 21.4737 49.1635 22.3214 48.881 24.0167ZM35.8837 58.4876H49.4461C51.4239 58.4876 51.4239 61.5957 49.4461 61.5957H35.8837C33.6233 61.5957 33.6233 58.4876 35.8837 58.4876ZM31.0804 53.1192H53.6843C55.9447 53.1192 55.9447 56.2273 53.6843 56.2273H31.0804C28.82 56.2273 28.82 53.1192 31.0804 53.1192ZM7.34627 67.2467H8.19392C3.10804 60.4655 0 51.7065 0 42.3824C0 18.9308 18.9308 0 42.3824 0C65.8339 0 84.7647 18.9308 84.7647 42.3824C84.7647 51.7065 81.6567 60.4655 76.5708 67.2467H77.4184C83.6345 67.2467 83.6345 76.8533 77.4184 76.8533H7.34627C1.1302 76.8533 1.1302 67.2467 7.34627 67.2467ZM11.5845 67.2467H73.1802C78.5486 60.4655 81.9392 51.7065 81.9392 42.3824C81.9392 20.6261 64.1386 2.82549 42.3824 2.82549C20.6261 2.82549 2.82549 20.6261 2.82549 42.3824C2.82549 51.7065 6.21608 60.4655 11.5845 67.2467ZM7.34627 70.0722C4.80333 70.0722 4.80333 74.0278 7.34627 74.0278H77.4184C79.9614 74.0278 79.9614 70.0722 77.4184 70.0722H7.34627ZM37.2965 16.6704C38.1441 18.9308 34.471 20.061 33.9059 17.518L32.4931 13.2798C31.928 10.7369 35.6012 9.88922 36.1663 12.1496L37.2965 16.6704ZM30.7978 18.9308C32.2106 20.9086 28.82 22.8865 27.6898 20.6261L25.4294 16.6704C24.2992 14.6925 27.4073 12.7147 28.5374 14.9751L30.7978 18.9308ZM25.1469 22.6039C26.8422 24.2992 24.2992 26.8422 22.6039 25.1469L19.2133 22.0388C17.518 20.3435 20.3435 17.518 22.0388 19.2133L25.1469 22.6039ZM20.6261 27.6898C22.8865 28.82 20.9086 32.2106 18.9308 31.0804L14.9751 28.5375C12.7147 27.4073 14.6925 24.2992 16.6704 25.4294L20.6261 27.6898ZM17.518 33.9059C20.061 34.471 18.9308 38.1441 16.6704 37.2965L12.1496 36.1663C9.88921 35.6012 10.7369 31.928 13.2798 32.4931L17.518 33.9059ZM40.4045 11.5845C40.4045 9.04157 44.3602 9.04157 44.3602 11.5845V16.3878C44.3602 18.6482 40.4045 18.6482 40.4045 16.3878V11.5845ZM48.5984 12.1496C49.1635 9.88922 52.8367 10.7369 52.2716 13.2798L50.8588 17.518C50.2937 20.061 46.6206 18.9308 47.4682 16.6704L48.5984 12.1496ZM56.2272 14.9751C57.3574 12.7147 60.4655 14.6925 59.3353 16.6704L57.0749 20.6261C55.9447 22.8865 52.5541 20.9086 53.9669 18.9308L56.2272 14.9751ZM62.7259 19.2133C64.4212 17.518 67.2467 20.3435 65.5514 22.0388L62.1608 25.1469C60.4655 27.1247 57.64 24.2992 59.6178 22.6039L62.7259 19.2133ZM68.0943 25.4294C70.0722 24.2992 72.05 27.4073 69.7896 28.5375L65.8339 31.0804C63.8561 32.2106 61.8782 28.82 64.1386 27.6898L68.0943 25.4294Z" fill="#0088F0"></path></svg> 