<?xml version="1.0" encoding="UTF-8"?> <svg xmlns="http://www.w3.org/2000/svg" width="91" height="84" viewBox="0 0 91 84" fill="none"><g clip-path="url(#clip0)"><path d="M71.659 9.39504C64.0543 4.19557 55.0297 1.44834 45.5609 1.44834C36.9269 1.44834 28.3493 3.74243 21.9652 7.67878V1.44834C21.9652 0.648867 21.2623 0 20.3962 0C19.5301 0 18.8271 0.648867 18.8271 1.44834V10.5594C18.8271 11.1213 19.1785 11.6325 19.7293 11.8701C20.2799 12.1091 20.9312 12.0323 21.3988 11.673C27.3827 7.08488 36.4154 4.3447 45.5609 4.3447C54.3518 4.3447 62.73 6.89653 69.792 11.7237C70.0728 11.9149 70.3991 12.0076 70.724 12.0076C71.204 12.0076 71.6779 11.8048 71.9854 11.421C72.5017 10.7781 72.3558 9.87148 71.659 9.39504Z" fill="#0088F0"></path><path d="M89.431 17.3793H79.5607C78.952 17.3793 78.4012 17.7051 78.1424 18.2135C77.8834 18.7218 77.9666 19.3229 78.3558 19.7546C83.3264 25.2769 86.2949 33.6146 86.2949 42.058C86.2949 50.1727 83.5304 57.9065 78.3009 64.4237C77.7848 65.0667 77.9307 65.9733 78.6272 66.4499C78.9081 66.641 79.2344 66.7337 79.5593 66.7337C80.0393 66.7337 80.5132 66.5309 80.8223 66.1472C86.4548 59.1274 89.4312 50.7968 89.4312 42.0566C89.4312 34.0867 86.9459 26.1676 82.6815 20.276H89.4312C90.2973 20.276 91.0002 19.6271 91.0002 18.8276C91 18.0281 90.2971 17.3793 89.431 17.3793Z" fill="#0088F0"></path><path d="M71.2719 72.1313C70.7213 71.8938 70.0717 71.9676 69.6025 72.3284C63.6185 76.9165 54.5859 79.6567 45.4404 79.6567C36.6479 79.6567 28.2696 77.1049 21.2093 72.2777C20.5128 71.8012 19.5306 71.9359 19.0143 72.5789C18.4982 73.2218 18.6441 74.1284 19.3406 74.6051C26.9453 79.8044 35.9702 82.5517 45.4388 82.5517C54.0728 82.5517 62.6504 80.2577 69.0344 76.3213V82.5517C69.0344 83.3512 69.7374 84.0001 70.6035 84.0001C71.4696 84.0001 72.1725 83.3512 72.1725 82.5517V73.4407C72.1725 72.8786 71.8211 72.3674 71.2719 72.1313Z" fill="#0088F0"></path><path d="M12.6458 64.247C7.67528 58.7234 4.70676 50.387 4.70676 41.9436C4.70676 33.8289 7.47124 26.0951 12.6991 19.5779C13.2153 18.9349 13.0693 18.0283 12.3728 17.5517C11.6763 17.0738 10.6941 17.21 10.1778 17.853C4.5452 24.8727 1.56904 33.2031 1.56904 41.9436C1.56904 49.9134 4.0543 57.8312 8.31868 63.7242H1.56904C0.702939 63.7242 0 64.373 0 65.1725C0 65.972 0.702939 66.6209 1.56904 66.6209H11.4393C12.0481 66.6209 12.6003 66.2965 12.8593 65.7881C13.1182 65.2797 13.035 64.6785 12.6458 64.247Z" fill="#0088F0"></path><path d="M47.0692 27.5142C47.0676 26.7148 46.3647 26.0688 45.5002 26.0688C45.5002 26.0688 45.4986 26.0688 45.497 26.0688C44.6293 26.0703 43.9296 26.7205 43.9312 27.52L43.9688 42.0028C43.9704 42.8022 44.6734 43.4482 45.5379 43.4482C45.5395 43.4482 45.5411 43.4482 45.5411 43.4482C46.4088 43.4467 47.1085 42.7965 47.1069 41.997L47.0692 27.5142Z" fill="#0088F0"></path><path d="M45.5375 40.5516H36.0861C35.22 40.5516 34.5171 41.2005 34.5171 42C34.5171 42.7995 35.22 43.4483 36.0861 43.4483H45.5375C46.4036 43.4483 47.1066 42.7995 47.1066 42C47.1066 41.2005 46.4036 40.5516 45.5375 40.5516Z" fill="#0088F0"></path><path d="M45.5 11.5863C27.3329 11.5863 12.5518 25.2291 12.5518 42C12.5518 58.771 27.3329 72.4138 45.5 72.4138C63.6685 72.4138 78.4482 58.771 78.4482 42C78.4482 25.2291 63.6685 11.5863 45.5 11.5863ZM45.5 69.5173C29.0619 69.5173 15.6897 57.1737 15.6897 42C15.6897 26.8264 29.0619 14.4828 45.5 14.4828C61.9381 14.4828 75.3103 26.8264 75.3103 42C75.3103 57.1737 61.9381 69.5173 45.5 69.5173Z" fill="#0088F0"></path><path d="M23.5351 40.5516H20.3972C19.5311 40.5516 18.8281 41.2005 18.8281 42C18.8281 42.7995 19.5311 43.4483 20.3972 43.4483H23.5351C24.4012 43.4483 25.1041 42.7995 25.1041 42C25.1041 41.2005 24.4012 40.5516 23.5351 40.5516Z" fill="#0088F0"></path><path d="M70.6034 40.5516H67.4655C66.5994 40.5516 65.8965 41.2005 65.8965 42C65.8965 42.7995 66.5994 43.4483 67.4655 43.4483H70.6034C71.4695 43.4483 72.1725 42.7995 72.1725 42C72.1725 41.2005 71.4695 40.5516 70.6034 40.5516Z" fill="#0088F0"></path><path d="M45.5002 60.8276C44.6341 60.8276 43.9312 61.4765 43.9312 62.276V65.1725C43.9312 65.972 44.6341 66.6208 45.5002 66.6208C46.3663 66.6208 47.0692 65.972 47.0692 65.1725V62.276C47.0692 61.4763 46.3663 60.8276 45.5002 60.8276Z" fill="#0088F0"></path><path d="M45.5002 17.3793C44.6341 17.3793 43.9312 18.0281 43.9312 18.8276V21.7241C43.9312 22.5236 44.6341 23.1725 45.5002 23.1725C46.3663 23.1725 47.0692 22.5236 47.0692 21.7241V18.8276C47.0692 18.0281 46.3663 17.3793 45.5002 17.3793Z" fill="#0088F0"></path><path d="M30.9196 55.4587C30.3077 54.8923 29.3145 54.8923 28.7012 55.4587L26.6396 57.3603C26.0277 57.9252 26.0277 58.842 26.6396 59.4082C26.9455 59.6905 27.3472 59.8324 27.7489 59.8324C28.1505 59.8324 28.5522 59.692 28.8581 59.4082L30.9196 57.5065C31.5316 56.9417 31.5316 56.0249 30.9196 55.4587Z" fill="#0088F0"></path><path d="M64.3594 24.5917C63.7458 24.0254 62.7542 24.0254 62.1409 24.5917L60.0808 26.4934C59.4672 27.0597 59.4672 27.975 60.0808 28.5412C60.3866 28.8236 60.7883 28.9655 61.19 28.9655C61.5917 28.9655 61.9934 28.8236 62.2992 28.5412L64.3594 26.6396C64.9727 26.0734 64.9727 25.1581 64.3594 24.5917Z" fill="#0088F0"></path><path d="M64.3594 57.3603L62.2992 55.4587C61.6857 54.8923 60.6941 54.8923 60.0808 55.4587C59.4672 56.025 59.4672 56.9403 60.0808 57.5065L62.1409 59.4082C62.4468 59.6905 62.8484 59.8324 63.2501 59.8324C63.6518 59.8324 64.0535 59.692 64.3594 59.4082C64.9727 58.842 64.9727 57.9267 64.3594 57.3603Z" fill="#0088F0"></path><path d="M30.9194 26.4934L28.8578 24.5917C28.2459 24.0254 27.2527 24.0254 26.6394 24.5917C26.0258 25.1581 26.0258 26.0747 26.6394 26.6396L28.7009 28.5412C29.0068 28.8236 29.4085 28.9655 29.8101 28.9655C30.2118 28.9655 30.6135 28.8236 30.9194 28.5412C31.5329 27.975 31.5329 27.0583 30.9194 26.4934Z" fill="#0088F0"></path></g><defs><clipPath id="clip0"><rect width="91" height="84" fill="white"></rect></clipPath></defs></svg> 